<svg width="16" height="16" fill="none" xmlns="http://www.w3.org/2000/svg"><path d="M14.138 2.986a1.5 1.5 0 01.021 2.1l-5.417 5.641a1.5 1.5 0 01-1.05.46l-2.275.049.048-2.291a1.5 1.5 0 01.442-1.032l5.537-5.506a1.5 1.5 0 012.118.003l.576.576z" fill="#3699FF"/><path opacity=".3" d="M8.6 1.333a.667.667 0 010 1.334H4c-.736 0-1.333.597-1.333 1.333v8c0 .736.597 1.333 1.333 1.333h8c.736 0 1.333-.597 1.333-1.333V8.667a.667.667 0 111.334 0V12A2.667 2.667 0 0112 14.667H4A2.667 2.667 0 011.333 12V4A2.667 2.667 0 014 1.333h4.6z" fill="#3699FF"/></svg>