<svg width="16" height="16" fill="none" xmlns="http://www.w3.org/2000/svg"><path fill-rule="evenodd" clip-rule="evenodd" d="M15.453 7.167c-.024-.21-.27-.37-.482-.37a1.666 1.666 0 01-1.553-1.027 1.67 1.67 0 01.419-1.854.417.417 0 00.046-.566 7.42 7.42 0 00-1.189-1.2.417.417 0 00-.57.046c-.447.495-1.25.68-1.87.42A1.666 1.666 0 019.24.988.416.416 0 008.873.55 7.488 7.488 0 007.185.545a.417.417 0 00-.37.43 1.669 1.669 0 01-1.028 1.6c-.613.25-1.41.068-1.857-.423a.418.418 0 00-.566-.048c-.449.353-.858.757-1.213 1.2a.417.417 0 00.045.57c.522.473.69 1.225.42 1.871-.26.617-.9 1.014-1.633 1.014a.408.408 0 00-.433.368 7.513 7.513 0 00-.003 1.706c.024.212.277.369.492.369a1.645 1.645 0 011.543 1.028c.262.639.094 1.384-.42 1.854a.417.417 0 00-.045.565c.348.444.748.848 1.186 1.2a.417.417 0 00.571-.044c.449-.497 1.252-.68 1.87-.421.647.27 1.055.925 1.015 1.628a.417.417 0 00.368.438 7.462 7.462 0 001.687.004.417.417 0 00.371-.43 1.667 1.667 0 011.027-1.598c.617-.253 1.41-.068 1.857.422.148.161.393.18.566.047a7.463 7.463 0 001.213-1.2.416.416 0 00-.045-.57 1.662 1.662 0 01-.42-1.87 1.68 1.68 0 011.535-1.017l.092.003a.417.417 0 00.44-.368 7.506 7.506 0 00.003-1.706zm-7.441 3.35A2.504 2.504 0 015.51 8.017a2.504 2.504 0 012.502-2.502 2.504 2.504 0 012.501 2.502 2.504 2.504 0 01-2.501 2.502z" fill="#fff"/></svg>